<?xml version="1.0" encoding="UTF-8" standalone="no"?>
<!-- Created with Inkscape (http://www.inkscape.org/) -->

<svg
   width="210mm"
   height="297mm"
   viewBox="0 0 210 297"
   version="1.1"
   id="svg5"
   xml:space="preserve"
   xmlns="http://www.w3.org/2000/svg"
   xmlns:svg="http://www.w3.org/2000/svg"><defs
     id="defs2" /><g
     id="layer1"><path
       style="fill:#000000;stroke-width:0.176389"
       d="m 7.4928297,87.742918 c -3.432567,-0.78977 -5.7046494,-2.38305 -6.98323641,-4.89694 -0.362824,-0.71337 -0.51050899556,-1.25629 -0.503804,-1.852093 l 0.0095,-0.84287 0.313064,0.970133 c 0.449044,1.39153 0.83110101,2.05452 1.75940301,3.05315 2.7075284,2.91264 7.2243204,3.84226 13.7759857,2.83531 6.31684,-0.97086 12.56211,-3.62989 19.76313,-8.414483 4.01841,-2.66997 6.157176,-4.44218 11.641666,-9.64643 6.631144,-6.29233 10.301814,-9.21662 14.111114,-11.24181 2.28648,-1.2156 6.27921,-2.55153 7.46338,-2.49719 0.21226,0.01 -0.0928,0.1229 -0.67788,0.25146 -3.38174,0.74306 -7.34037,2.70247 -10.79311,5.34227 -2.74373,2.09773 -4.49578,3.67696 -10.279893,9.2659 -5.6677,5.47647 -9.544713,8.49902 -15.053281,11.735663 -4.643175,2.72816 -9.734899,4.71784 -14.540268,5.68185 -2.429186,0.48732 -8.3428873,0.63867 -10.0057553,0.25608 z M 2.3294439e-5,76.342725 C -0.00547671,75.398925 0.96371329,73.627355 2.1160713,72.474995 c 0.973098,-0.9731 3.2165474,-2.30025 3.8570554,-2.28171 0.15674,0.005 -0.07221,0.14884 -0.508769,0.32068 -2.3951754,0.94275 -4.1659904,2.80492 -5.05474241,5.31552 -0.372601,1.05254 -0.406176,1.09461 -0.409591995561,0.51324 z M 14.63658,73.202915 c 0,-0.37918 3.579507,-6.36926 3.806096,-6.36926 0,0 1.038992,-0.939718 0.740742,-2.01967 l 4.425029,-8.82386 c 7.389894,-14.73605 8.884313,-17.48984 12.111242,-22.31761 4.529035,-6.77584 10.256724,-13.025685 16.523593,-18.029935 1.78131,-1.42241 2.09144,-1.80468 0.4492,-0.55367 -3.729652,2.84113 -9.437922,8.155645 -12.038538,11.208115 -0.582084,0.68322 -1.139485,1.33236 -1.23867,1.44253 -0.503574,0.55936 -2.448673,3.04075 -3.544551,4.52184 -3.285676,4.44063 -5.764637,8.60634 -9.289567,15.61042 -2.390417,4.74978 -2.833679,5.55321 -3.064685,5.55483 -0.315669,0.002 -1.806954,-1.7399 -2.267655,-2.64905 -0.487328,-0.9617 -0.902113,-2.53435 -1.014624,-3.84693 l -0.08067,-0.94116 1.170612,1.16164 c 1.442334,1.43128 1.7783,1.5223 0.544128,0.14741 -1.749802,-1.94932 -1.843269,-2.44469 -1.156508,-6.12952 0.790663,-4.24231 1.170065,-5.57112 2.151782,-7.53636 0.686306,-1.37387 2.429903,-3.99059 3.789925,-5.68775 l 0.944247,-1.17832 0.215357,1.06403 c 0.118446,0.58522 0.435232,1.4842 0.703969,1.99774 l 0.488612,0.93372 0.118009,-2.29306 c 0.125234,-2.43343 0.372147,-3.37199 1.306542,-4.96641 0.670141,-1.14351 4.994263,-5.476225 5.543998,-5.555015 0.278227,-0.0399 0.465921,-0.20688 0.527392,-0.46924 0.121144,-0.51705 2.64994,-2.62977 5.326387,-4.45 1.902788,-1.29408 5.700972,-3.5211396 6.005182,-3.5211396 0.07248,0 -0.09226,0.37997 -0.366082,0.8443696 -0.740474,1.25584 -1.263208,2.78543 -1.380247,4.03878 -0.117662,1.26002 0.127468,1.50275 0.445525,0.44116 0.266538,-0.88962 1.700697,-3.25903 2.83692,-4.68693 2.00748,-2.5228396 4.18139,-3.8070596 10.30685,-6.0886996 4.47691,-1.66758 13.19814,-3.93851002 13.5963,-3.54035002 0.22039,0.2204 0.28563,0.1789 -1.88271,1.19735002 -1.97086,0.92569 -2.65873,1.41068 -0.88194,0.62183 1.77885,-0.78976 3.74826,-1.46742002 3.74826,-1.28974 0,0.0946 -0.0794,0.17195 -0.17639,0.17195 -0.097,0 -0.17639,0.0794 -0.17639,0.17639 0,0.33826 0.36269,0.17329 0.51819,-0.2357 0.12416,-0.32657002 0.44358,-0.49281002 1.53903,-0.80096002 1.30044,-0.36582 1.67705,-0.38583 6.354556,-0.33756 l 4.97221,0.0513 -1.8854,1.17455002 c -1.03697,0.646 -3.07602,1.99897 -4.53123,3.00659 -1.455206,1.00763 -4.164446,2.63754 -6.020546,3.62202 -3.32576,1.764 -4.65672,2.5136396 -4.46515,2.5149296 0.0537,3.7e-4 0.92081,-0.27655 1.92691,-0.6153696 1.0061,-0.33882 1.85706,-0.58824 1.89104,-0.55427 0.0817,0.0817 -1.56437,1.4759496 -2.70452,2.2907496 -1.79087,1.27981 -5.04444,2.50407 -12.37141,4.6551 -0.51139,0.15013 -0.89934,0.30342 -0.86212,0.34064 0.0372,0.0372 1.20969,-0.24927 2.60549,-0.63666 3.6162,-1.00363 7.99212,-2.09207 8.08437,-2.01085 0.13317,0.11724 -2.24104,2.4377 -5.0385,4.9244 -1.46682,1.30388 -3.17338,2.978005 -3.79236,3.720265 -0.61898,0.74227 -1.48136,1.57673 -1.9164,1.85437 -0.71288,0.45496 -6.65005,2.5037 -11.689614,4.03375 -1.043492,0.31681 -1.869076,0.6042 -1.834631,0.63864 0.189306,0.18931 10.121545,-1.99864 11.534885,-2.54099 0.16313,-0.0626 -0.49394,0.75883 -1.46014,1.8254 -0.96621,1.06657 -2.8283,3.32378 -4.13799,5.01603 -1.382553,1.7864 -3.416945,4.12796 -4.850699,5.5831 -2.401025,2.43683 -2.520759,2.53024 -4.321527,3.37134 -1.018646,0.47578 -2.505234,1.12897 -3.30353,1.45153 -2.470622,0.99829 -1.479982,0.76551 1.539641,-0.36179 1.577666,-0.58897 2.90069,-1.03866 2.940053,-0.9993 0.142849,0.14286 -6.241464,6.41438 -7.663719,7.52834 -0.803261,0.62913 -2.152636,1.55285 -2.998611,2.0527 -0.845977,0.49985 -2.314937,1.4081 -3.264355,2.01832 -1.954687,1.25635 -2.148711,1.50284 -4.707606,5.9805 -1.212986,2.106992 -2.803821,4.653117 -3.164662,5.64449 l -0.220496,0.46719 -0.511461,0.86884 c -0.681803,1.1582 -0.657858,1.59214 0.132519,2.40156 0.3575,0.36611 0.615469,0.68704 0.573264,0.71317 -0.0422,0.0261 -0.942523,0.4699 -2.00071,0.98615 -1.058189,0.51625 -2.393333,1.25039 -2.966988,1.63142 -1.118165,0.7427 -1.194451,0.77692 -1.194451,0.53566 z m 4.551339,-3.48049 c 0.0679,-0.47589 -0.461477,-0.70423 -0.814415,-0.3513 -0.359389,0.3594 -0.130431,0.8523 0.363329,0.78219 0.247493,-0.0351 0.417837,-0.19787 0.451086,-0.43089 z m 18.59273,-31.98445 c 1.972376,-0.74366 6.419972,-2.64233 8.253151,-3.52326 0.923874,-0.44397 1.026637,-0.53007 0.529167,-0.44338 -1.05293,0.1835 -5.226217,1.61984 -7.201843,2.47869 -1.660169,0.72172 -4.616212,2.2911 -4.616212,2.45078 0,0.10909 1.21355,-0.27581 3.035737,-0.96283 z m 6.342093,-5.14322 c 2.133323,-0.72659 4.994098,-1.9611 4.204114,-1.8142 -0.96832,0.18006 -4.024357,1.28122 -5.10531,1.83956 -1.265368,0.6536 -1.076683,0.64829 0.901196,-0.0254 z M 54.346582,13.96104 c 0.2194,-0.27976 0.21316,-0.286 -0.0666,-0.0666 -0.16978,0.13315 -0.30868,0.27205 -0.30868,0.30868 0,0.14518 0.14485,0.0517 0.37528,-0.24208 z M 6.4896187,70.064505 c 0.12733,-0.051 0.279466,-0.0447 0.338078,0.0139 0.05861,0.0586 -0.04557,0.1003 -0.23151,0.0926 -0.205483,-0.008 -0.24728,-0.0503 -0.106568,-0.10657 z m 0.694531,-0.17271 c 0.121267,-0.0489 0.319705,-0.0489 0.440972,0 0.121267,0.0489 0.02205,0.089 -0.220486,0.089 -0.242535,0 -0.341754,-0.04 -0.220486,-0.089 z M 69.537622,55.070355 c 0.16977,-0.0444 0.44758,-0.0444 0.61736,0 0.16977,0.0444 0.0309,0.0807 -0.30868,0.0807 -0.33955,0 -0.47846,-0.0363 -0.30868,-0.0807 z m 2.03053,-0.17955 c 0.21941,-0.0422 0.53691,-0.0406 0.70555,0.004 0.16864,0.0442 -0.0109,0.0787 -0.39893,0.0767 -0.38806,-0.002 -0.52604,-0.0381 -0.30662,-0.0803 z m 1.98231,-54.35884462 c 0,-0.1633 0.60594,-0.37173 1.05834,-0.36404 0.14552,0.002 -0.003,0.12045 -0.32893,0.26218 -0.69566,0.30202 -0.72941,0.30673 -0.72941,0.10186 z"
       id="path194" /></g></svg>
